<svg xmlns="http://www.w3.org/2000/svg" version="1.1" xmlns:xlink="http://www.w3.org/1999/xlink" width="1251" height="1325"><svg width="1251" height="1325" viewBox="0 0 1251 1325" fill="none" xmlns="http://www.w3.org/2000/svg">
<path d="M0 1251V73.5882C0 32.9466 32.9466 0 73.5882 0C114.23 0 147.176 32.9466 147.176 73.5882V1251C147.176 1291.64 114.23 1324.59 73.5882 1324.59C32.9466 1324.59 0 1291.64 0 1251Z" fill="oklch(0.76 0.19 163)"></path>
<path d="M367.941 1251V73.5882C367.941 32.9466 400.888 0 441.529 0C482.171 0 515.118 32.9466 515.118 73.5882V1251C515.118 1291.64 482.171 1324.59 441.529 1324.59C400.888 1324.59 367.941 1291.64 367.941 1251Z" fill="oklch(0.76 0.19 163)"></path>
<path d="M735.883 1251V73.5882C735.883 32.9466 768.829 0 809.471 0C850.112 0 883.059 32.9466 883.059 73.5882V1251C883.059 1291.64 850.112 1324.59 809.471 1324.59C768.829 1324.59 735.883 1291.64 735.883 1251Z" fill="oklch(0.76 0.19 163)"></path>
<path d="M1103.82 1251V73.5882C1103.82 32.9466 1136.77 0 1177.41 0C1218.05 0 1251 32.9466 1251 73.5882V1251C1251 1291.64 1218.05 1324.59 1177.41 1324.59C1136.77 1324.59 1103.82 1291.64 1103.82 1251Z" fill="oklch(0.76 0.19 163)"></path>
</svg><style>@media (prefers-color-scheme: light) { :root { filter: none; } }
@media (prefers-color-scheme: dark) { :root { filter: none; } }
</style></svg>